Presents

New Years Eve (2011) CAM x264-BBnRG

Format: MPEG-4
Format profile: Base Media / Version 2
Codec ID: mp42
File size: 577 MiB
Duration: 1h 48mn
Overall bit rate: 745 Kbps

Video
ID: 1
Format: AVC
Format/Info: Advanced Video Codec
Format profile: High@L3.0
Format settings, CABAC: Yes
Format settings, ReFrames: 4 frames
Codec ID: avc1
Codec ID/Info: Advanced Video Coding
Duration: 1h 48mn
Bit rate mode: Variable
Bit rate: 578 Kbps
Width: 656 pixels
Height: 352 pixels
Display aspect ratio: 16:9
Original display aspect ratio: 16:9
Frame rate mode: Constant
Frame rate: 29.970 fps
Color space: YUV
Chroma subsampling: 4:2:0
Bit depth: 8 bits
Scan type: Progressive
Bits/(Pixel*Frame): 0.084
Stream size: 449 MiB (78%)
Writing library: x264 core 112

Audio
ID: 2
Format: AAC
Format/Info: Advanced Audio Codec
Format profile: LC
Codec ID: 40
Duration: 1h 48mn
Bit rate mode: Variable
Bit rate: 160 Kbps
Maximum bit rate: 193 Kbps
Channel(s): 2 channels
Channel positions: Front: L R
Sampling rate: 48.0 KHz
Compression mode: Lossy
Stream size: 124 MiB (21%)
Language: English

New Year's Eve (2011)
The lives of several couples and singles in New York intertwine over
the course of New Year's Eve

Ratings: 4.9/10 from 4,383 users Metascore: 22/100 
http://www.imdb.com/title/tt1598822/

Source: UnKnOwN (Thanks!)
Encoder: SMiLE

Source was fantastic for a CAM. We just did our usual and ran a few
filters over the video before then dropping it in for conversion
We were going to do a version with filtered audio but the audio on
this is already better than most CAM's. Happy Holidays + Enjoy!

To Our Friends & To The Past, Present And Future Of p2p

If You Have Anything That You Can Provide Us With:

Come And Find Us